<svg width="53" height="91" viewBox="0 0 53 91" fill="none" xmlns="http://www.w3.org/2000/svg">
<g clip-path="url(#clip0_19_120)">
<path d="M37.1323 30.7227C40.5009 30.7227 43.7734 30.7382 47.0437 30.716C48.7268 30.7049 50.2312 31.1543 51.0985 32.6426C51.5813 33.4724 51.9166 34.5135 51.9345 35.4657C52.0195 39.9639 51.9859 44.4644 51.9636 48.9627C51.9502 51.7791 50.0926 53.6323 47.2538 53.659C44.2182 53.6879 41.1849 53.6657 38.1494 53.6657C37.8252 53.6657 37.5011 53.6657 37.0541 53.6657C37.0541 54.1061 37.0541 54.4799 37.0541 54.8559C37.0541 65.1872 37.063 75.5163 37.0362 85.8477C37.0362 86.6864 36.9468 87.5941 36.6226 88.3527C35.8626 90.1324 34.3784 90.98 32.4471 90.9867C27.6859 91.0022 22.9247 91.0045 18.1657 90.9867C15.4766 90.9755 13.6906 89.2715 13.5207 86.6152C13.4984 86.2615 13.5051 85.9055 13.5051 85.5496C13.5051 75.3361 13.5051 65.1249 13.5051 54.9115C13.5051 54.5311 13.5051 54.1529 13.5051 53.6634C13.1005 53.6634 12.7831 53.6634 12.4679 53.6634C10.0873 53.6634 7.70668 53.6746 5.32607 53.6612C2.35982 53.6412 0.529101 51.8437 0.517925 48.9027C0.500042 44.4044 0.497807 39.9039 0.517925 35.4056C0.531336 32.5402 2.31735 30.7605 5.19419 30.7271C7.60385 30.7004 10.0135 30.7204 12.4254 30.7204C12.7451 30.7204 13.0647 30.7204 13.5051 30.7204C13.5051 30.2488 13.4939 29.8729 13.5051 29.4991C13.6414 25.8662 13.4671 22.1889 13.9901 18.6116C15.0184 11.6172 18.577 6.12453 24.9364 2.6763C28.0301 0.998897 31.3585 0.0511893 34.9104 0.0378413C39.3743 0.0222686 43.8382 0.104581 48.2999 2.19158e-05C50.0747 -0.0422468 51.9189 1.4505 52.3123 3.16127C52.4307 3.67517 52.4866 4.21577 52.4889 4.74301C52.5023 8.79858 52.5023 12.8541 52.4956 16.9097C52.4889 20.0042 50.6827 21.7973 47.5511 21.824C44.9022 21.8463 42.2556 21.8552 39.6068 21.8752C39.3408 21.8752 39.0703 21.893 38.8088 21.9397C37.481 22.1755 37.1792 22.4425 37.1479 23.804C37.0943 26.0731 37.1323 28.3423 37.1323 30.7227ZM5.92067 48.3265C6.35655 48.3265 6.68067 48.3265 7.00479 48.3265C9.89058 48.3265 12.7786 48.3153 15.6644 48.3309C17.6538 48.342 18.796 49.4766 18.8743 51.4677C18.8855 51.7347 18.8788 52.0016 18.8788 52.2663C18.8788 63.0137 18.8788 73.7589 18.8788 84.5062V85.6074H31.6714C31.6714 85.1781 31.6714 84.7999 31.6714 84.4217C31.6714 73.5876 31.6714 62.7512 31.6714 51.9171C31.6714 49.4099 32.7488 48.3309 35.2412 48.3287C38.6925 48.3265 42.1461 48.3287 45.5974 48.3287H46.5519V36.0663C46.1808 36.0663 45.8589 36.0663 45.5393 36.0663C42.0276 36.0663 38.5159 36.0774 35.0043 36.0619C33.0461 36.053 31.7497 35.0185 31.7161 33.1854C31.658 29.815 31.6066 26.4291 31.8458 23.0698C32.1118 19.3413 34.1862 17.1945 37.9012 16.7562C40.4875 16.4514 43.1229 16.556 45.736 16.4826C46.1741 16.4692 46.6122 16.4826 47.0816 16.4826V5.29918C46.9565 5.26136 46.876 5.21242 46.7933 5.21242C42.9553 5.22354 39.1128 5.1301 35.2792 5.28361C31.3227 5.43933 27.6792 6.64955 24.6459 9.29913C20.8056 12.6517 19.1917 17.0521 18.9592 21.9797C18.796 25.4369 18.8899 28.9051 18.8743 32.3689C18.8631 34.9607 17.7767 36.0619 15.2017 36.0641C12.792 36.0663 10.3801 36.0641 7.97045 36.0641C7.29538 36.0641 6.62255 36.0641 5.9162 36.0641V48.3265H5.92067Z" fill="#F9F9F9"/>
</g>
<defs>
<clipPath id="clip0_19_120">
<rect width="52" height="91" fill="white" transform="translate(0.5)"/>
</clipPath>
</defs>
</svg>
