<svg width="83" height="82" viewBox="0 0 83 82" fill="none" xmlns="http://www.w3.org/2000/svg">
<g clip-path="url(#clip0_19_116)">
<path d="M82.5003 20.6763V61.3455C82.368 62.2096 82.2878 63.0837 82.0953 63.9338C80.0445 72.9899 74.5555 78.8121 65.6123 81.3222C64.3915 81.665 63.1064 81.7793 61.8494 81.9999H21.1933C20.9326 81.9537 20.674 81.8916 20.4114 81.8655C18.1942 81.637 16.027 81.1438 14.0203 80.1975C5.33574 76.0975 0.69676 69.2207 0.580485 59.6112C0.43013 47.205 0.538386 34.7947 0.546405 22.3865C0.548409 18.499 1.39241 14.7939 3.37109 11.4398C7.79956 3.92743 14.4353 0.0820499 23.1519 0.0359374C35.3969 -0.0282191 47.6418 0.00586404 59.8868 0.0359374C61.4264 0.0399472 63.0022 0.122148 64.4957 0.456964C73.5331 2.47789 79.3248 7.99335 81.8247 16.9151C82.1675 18.1341 82.2818 19.4192 82.5003 20.6723V20.6763ZM77.6989 41.0079C77.6989 34.899 77.723 28.7881 77.6809 22.6792C77.6709 21.3018 77.5867 19.8884 77.2759 18.5531C75.3434 10.2468 68.5172 4.84166 60.0051 4.83163C47.6819 4.8176 35.3588 4.8156 23.0356 4.84567C21.7105 4.84968 20.3553 4.94792 19.0702 5.24865C10.7646 7.18337 5.3618 14.008 5.35177 22.5228C5.33774 34.8489 5.33774 47.1749 5.3638 59.501C5.36581 60.8001 5.46203 62.1274 5.74069 63.3925C7.54296 71.5824 14.4673 77.1641 22.8792 77.1861C35.3086 77.2182 47.7381 77.1961 60.1695 77.1921C62.6794 77.1921 65.1212 76.7591 67.3825 75.6584C74.1104 72.3864 77.5787 66.9652 77.6809 59.493C77.7651 53.3299 77.6989 47.1669 77.6989 41.0039V41.0079Z" fill="white"/>
<path d="M63.9301 41.0401C63.896 53.3762 53.7901 63.4588 41.493 63.4247C29.1599 63.3906 19.08 53.282 19.1141 40.982C19.1482 28.6459 29.2541 18.5633 41.5512 18.5974C53.8844 18.6315 63.9642 28.7401 63.9301 41.0401ZM41.4991 58.619C51.1719 58.641 59.1208 50.7017 59.1248 41.014C59.1288 31.3605 51.2622 23.4632 41.5853 23.4031C31.9304 23.343 23.9596 31.2663 23.9195 40.9679C23.8794 50.6355 31.8081 58.5949 41.4991 58.619Z" fill="white"/>
<path d="M57.8516 17.2882C57.8255 13.6934 60.8086 10.6781 64.4352 10.6319C67.9996 10.5878 71.0388 13.5972 71.0909 17.224C71.1431 20.7887 68.1139 23.8442 64.4993 23.8763C60.9008 23.9083 57.8777 20.911 57.8496 17.2882H57.8516ZM66.2675 17.2822C66.2836 16.3298 65.4736 15.4878 64.5114 15.4577C63.5651 15.4276 62.7091 16.2336 62.665 17.194C62.6209 18.1683 63.4789 19.0605 64.4633 19.0625C65.4135 19.0665 66.2515 18.2385 66.2675 17.2802V17.2822Z" fill="white"/>
</g>
<defs>
<clipPath id="clip0_19_116">
<rect width="82" height="82" fill="white" transform="translate(0.5)"/>
</clipPath>
</defs>
</svg>
