<svg width="1116" height="91" viewBox="0 0 1116 91" fill="none" xmlns="http://www.w3.org/2000/svg">
<g clip-path="url(#clip0_18_85)">
<path d="M1109.94 38.5056C1106.3 42.7656 1101.44 31.7682 1096.58 36.4361C1091.73 39.8803 1086.87 43.1735 1083.23 36.3152C1079.59 38.0826 1077.17 41.7988 1077.17 34.5478C1077.17 40.1371 1076.32 33.7925 1075.06 38.6114C1073.8 42.8713 1072.1 37.4482 1070.41 33.2184C1067.04 27.6291 1063.66 38.2488 1063.66 28.8678C1063.66 39.3214 1062.81 16.1031 1061.97 19.4113C1061.55 21.8132 1061.12 22.6139 1060.81 18.5654C1060.5 17.7496 1060.29 13.5803 1060.29 9.93972C1060.29 9.1693 1056.49 9.19952 1052.68 17.5079C1050.79 7.4623 1048.89 15.5441 1047.46 24.0187C1046.03 34.0946 1045.08 28.173 1045.08 25.0762C1045.08 16.6922 1041.81 18.4747 1038.52 21.0881C1035.25 21.6168 1031.97 23.0368 1031.97 22.5534C1031.97 20.7407 1029.73 17.0094 1026.36 21.4658C1023 27.0249 1018.51 16.6167 1014.04 19.079C1009.56 17.1303 1005.07 23.8224 1001.72 16.2239C998.362 29.3966 996.11 15.5441 996.11 15.6046C996.11 13.535 991.89 11.9489 987.67 17.9762C983.45 24.2453 979.23 10.8159 979.23 20.3479C979.23 26.043 975.01 16.9339 970.789 18.8373C966.569 15.6348 962.349 14.8493 962.349 19.4113C962.349 28.9736 959.39 31.164 956.444 25.0006C953.484 30.5748 950.539 23.8979 950.539 17.5231C950.539 13.7616 948.74 20.6954 946.05 13.2782C943.359 18.0971 939.776 14.5018 936.179 18.4747C928.999 15.0758 921.834 15.1363 921.834 19.4264C921.834 16.2541 921.834 16.088 910.009 17.5382C898.184 18.082 898.184 16.798 898.184 15.6499C898.184 16.8584 893.539 10.1512 888.894 17.5382C886.572 13.248 884.249 20.6954 882.508 22.3571C880.766 25.3028 879.604 31.3604 879.604 19.4264C879.604 22.07 878.231 11.1633 876.177 11.692C874.124 0.10556 871.377 9.65271 868.629 18.9581C863.149 14.7888 857.654 16.375 857.654 18.4899C857.654 15.091 851.324 20.65 844.994 16.1182C841.822 15.6348 838.664 10.121 836.285 12.1301C833.906 9.03335 832.334 17.0548 832.334 13.7465C832.334 18.792 818.824 9.56207 818.824 9.96994C818.824 9.95483 815.029 16.4354 811.233 13.7465C807.438 6.52571 803.643 22.5232 803.643 17.5231C803.643 16.5865 801.434 15.6348 798.106 17.4173C794.778 17.1303 790.345 19.079 785.913 13.2631C781.48 18.0669 777.048 8.89739 773.72 13.3084C772.063 17.236 770.675 14.0788 769.698 15.1665C768.735 12.2359 768.169 17.0397 768.169 9.00314C768.169 13.6408 766.059 4.63743 763.949 3.38361C761.839 5.64955 759.729 -4.38099 759.729 2.3866C759.729 1.45002 755.508 0.58896 751.288 3.42893C747.068 -0.166352 742.848 1.26874 742.848 2.3866C742.848 4.01808 738.628 -1.13315 733.134 6.28401C730.386 7.2206 727.327 12.538 724.325 9.57717C721.323 13.7918 718.363 7.29613 715.828 13.7314C715.828 9.25994 704.004 20.4839 704.004 16.5714C704.004 20.3328 698.098 19.9552 692.179 17.9914C689.219 13.5048 686.274 14.7586 684.05 16.6922C681.841 18.6107 680.354 21.209 680.354 19.4113C680.354 17.6137 672.764 24.7892 665.159 18.943C657.569 14.7435 649.964 12.1452 649.964 18.4747C649.964 20.4386 644.894 18.6258 639.839 18.0065C637.304 17.0245 634.769 15.091 632.871 12.3416C630.974 9.68292 629.699 9.54696 629.699 17.5231C629.699 17.3569 617.874 11.8431 617.874 21.2996C617.874 21.4809 615.665 17.372 612.337 22.6743C609.009 24.5172 604.577 22.5383 600.144 21.2996C595.712 6.32933 591.279 13.8522 587.951 19.8343C586.294 22.1909 584.907 26.2998 583.93 27.9464C582.966 29.5929 582.4 28.7772 582.4 21.2996C582.4 16.6469 579.44 15.9218 576.495 17.0397C573.535 17.4626 570.59 1.23853 570.59 12.7797C570.59 16.8735 567.219 21.783 563.835 19.0941C560.464 17.9007 557.08 10.8008 557.08 10.8914C557.08 8.1874 556.768 20.6349 556.216 17.3871C555.663 7.02422 554.87 13.8673 553.922 19.5171C552.024 19.1394 549.489 8.74633 546.954 12.3265C544.419 12.1301 541.884 13.0818 539.987 9.10888C538.089 19.7588 536.815 10.8159 536.815 13.7465C536.815 10.0304 532.595 19.9098 528.374 16.8584C524.154 19.6379 519.934 19.4415 519.934 14.6831C519.934 18.233 517.824 4.50148 515.714 8.41399C513.604 8.89739 511.494 13.0818 511.494 6.16316C511.494 -1.91868 506.424 2.11469 500.732 7.58315C499.301 1.60108 497.843 8.47442 496.412 0.981722C494.982 4.83381 493.58 7.62847 492.263 6.38976C489.657 1.67661 487.434 12.7646 486.174 9.00314C485.324 16.3448 482.987 6.67678 479.645 10.257C477.974 8.9125 476.048 15.9671 473.938 15.5895C471.828 24.6532 469.534 26.1034 467.112 13.4142C464.691 14.3961 462.142 17.085 459.536 15.3931C456.93 11.6467 454.254 7.03933 451.577 17.5079C448.901 18.2935 446.224 13.1574 443.619 17.8705C441.013 21.3449 438.464 21.073 436.042 21.6168C431.199 26.2847 426.852 25.046 423.51 23.8526C420.168 20.7709 417.817 23.0822 416.981 26.0279C414.446 25.6049 409.801 22.7498 405.794 26.9796C401.786 30.1821 398.402 21.2543 398.402 27.9313C398.402 31.4963 394.606 18.369 390.811 21.3147C387.016 20.3479 383.221 17.3871 383.221 14.6982C383.221 6.72209 380.898 8.9125 377.174 13.6559C373.449 16.9037 368.337 9.00314 362.743 14.2299C357.149 22.5988 351.088 15.2873 345.466 15.8312C339.844 13.7465 334.675 8.6708 330.88 13.7465C327.085 19.0337 323.814 16.6318 321.038 11.4352C318.262 10.4684 315.997 10.1814 314.212 13.2782C310.629 13.8069 308.93 20.2271 308.93 12.8099C308.93 6.66167 299.64 3.1117 290.365 9.96994C281.075 5.96678 271.799 11.7072 271.799 7.12996C271.799 -1.04251 265.894 9.62249 259.974 11.3899C254.069 19.7739 248.149 21.8737 248.149 15.6499C248.149 10.3325 243.08 20.9975 238.024 12.8099C232.954 15.665 227.899 12.3114 227.899 9.96994C227.899 21.2996 220.719 19.3207 213.553 13.7465C209.97 9.74334 206.373 17.0548 203.683 17.946C200.992 19.1998 199.194 20.3328 199.194 17.5231C199.194 21.1637 183.999 17.5533 183.999 16.5714C183.999 18.082 168.803 13.9429 168.803 14.6831C168.803 19.2452 162.898 19.5775 156.979 19.8796C151.073 21.5111 145.154 21.4507 145.154 25.0762C145.154 22.2211 142.194 25.6502 139.249 20.8162C136.289 18.4899 133.343 21.1939 133.343 16.5563C133.343 15.8312 125.753 14.4565 118.148 17.0246C110.544 19.4567 102.953 22.2664 102.953 17.4928C102.953 18.082 99.1578 20.2573 93.4508 21.8737C87.7579 25.3934 80.1533 25.4538 72.5628 29.7893C57.3677 33.9738 57.3677 38.7322 57.3677 33.5659C57.3677 31.3302 45.5429 35.8922 45.5429 32.6142C45.5429 28.9736 34.143 37.1461 22.7431 35.4542C11.3433 36.8741 -0.0566406 38.2941 -0.0566406 38.2941V62.6605C0.0566502 62.6303 0.15578 62.6001 0.269071 62.5699C4.55996 57.5999 10.2953 61.8599 16.0307 58.5063C21.766 57.0561 27.4872 62.298 31.7923 54.4427C36.0831 59.7601 38.9579 63.1288 38.9579 52.5997C38.9579 58.1891 42.8098 50.4244 48.5876 52.5997C54.3655 49.0196 62.0692 36.5267 69.7872 52.5997C77.491 53.8989 85.1947 63.1137 90.9867 52.5997C96.7646 57.3733 100.616 44.4726 100.616 52.5997C100.616 53.6421 103.605 51.8142 107.584 49.9713C111.563 51.5272 116.548 42.403 120.527 45.1071C124.507 38.838 127.495 43.7626 127.495 42.4786C127.495 40.6507 131.446 38.7171 135.397 41.6326C139.348 41.0586 143.299 50.1374 143.299 40.7867C143.299 38.3999 148.043 32.0099 152.787 39.9407C157.531 40.0163 162.275 33.0825 162.275 39.0948C162.275 45.9379 165.957 35.001 170.885 39.5328C175.799 35.1823 181.945 37.6597 186.873 40.3486C191.787 39.4724 195.483 42.0254 195.483 40.7867C195.483 38.9286 199.038 38.3697 202.592 40.7867C206.147 37.9618 209.701 47.3277 209.701 40.7867C209.701 30.6806 214.049 37.9316 218.396 39.9407C222.744 41.1341 227.092 34.8197 227.092 39.0948C227.092 41.542 229.457 42.0254 231.836 39.0948C234.201 37.8258 236.58 42.5843 236.58 39.0948C236.58 39.3063 242.513 41.0435 248.433 42.4635C254.366 41.7233 260.286 47.4334 260.286 45.8321C260.286 47.1313 262.651 52.7508 265.03 46.6781C267.395 45.1675 269.774 51.1495 269.774 47.524C269.774 51.4668 275.707 44.2007 281.627 47.524C287.561 51.92 293.48 48.6872 293.48 47.524C293.48 48.1585 298.621 42.3879 303.761 48.37C308.902 48.2794 314.042 52.2523 314.042 49.216C314.042 48.4002 315.968 51.361 318.546 55.334C321.123 52.63 324.338 63.295 326.915 66.6939C329.492 74.5642 331.418 67.6305 331.418 72.8119C336.162 79.1867 338.527 87.0118 339.717 84.6099C340.906 84.7458 340.906 85.773 340.906 86.3018C340.906 85.3652 344.064 94.5649 348.284 86.7398C352.505 95.9244 357.773 87.0571 361.978 87.5556C366.199 94.7462 369.357 82.4799 369.357 87.9937C369.357 86.2262 372.118 92.9032 374.894 82.0871C377.655 75.244 380.431 78.507 380.431 76.1806C380.431 77.4042 383.589 66.6788 386.761 67.7513C389.919 71.4221 393.091 59.4127 393.091 59.322C393.091 58.8386 396.15 56.4216 400.752 58.0078C405.341 60.6665 411.472 63.446 417.604 55.1074C423.736 57.0863 429.854 55.047 434.456 52.207C439.045 55.2584 442.118 48.7477 442.118 50.8927C442.118 55.2735 445.672 51.7689 449.227 46.6781C452.781 43.0375 456.336 43.6569 456.336 42.4635C456.336 37.2971 461.476 39.986 466.617 40.7716C471.757 41.7233 476.898 38.6718 476.898 39.0797C476.898 38.989 480.934 35.6808 486.329 38.6416C491.711 38.8078 498.452 35.4844 503.833 37.8258C509.214 35.3635 513.264 37.7352 513.264 37.3878C513.264 38.3999 518.405 38.1431 523.545 41.6024C528.686 45.3941 533.827 43.9741 533.827 45.817C533.827 44.3971 536.588 45.5149 539.364 46.663C542.125 46.95 544.901 53.34 544.901 47.5089C544.901 47.4485 546.756 49.2008 549.262 50.8323C551.769 54.4125 554.927 59.2163 557.547 55.9533C563.084 53.8838 568.21 58.748 571.977 63.7481C575.73 71.9055 578.109 64.1258 578.109 67.7513C578.109 68.5217 580.871 60.6212 585.02 64.5941C589.169 59.9263 594.706 57.3431 600.229 57.6452C605.766 52.3883 611.289 57.0259 615.439 50.6964C619.588 50.6208 622.349 50.8323 622.349 47.5392C629.458 53.1134 629.855 47.4938 630.053 49.8504C630.251 47.8413 630.251 49.8806 636.567 50.9078C642.897 52.781 646.055 50.651 647.627 52.3883C649.213 51.6178 649.213 49.9713 649.213 52.5997C649.213 61.1952 651.578 50.8172 654.75 52.5997C657.908 54.6693 661.859 50.8323 665.032 52.5997C671.362 57.3733 671.362 56.195 671.362 52.5997C671.362 51.7085 675.313 54.7297 679.264 50.9078C683.215 47.4485 687.166 51.6632 687.166 49.216C687.166 52.3127 690.324 52.0559 693.496 47.524C696.654 46.7083 699.826 45.3336 699.826 45.8321C699.826 45.4998 702.588 47.9017 705.363 44.9862C708.125 50.3187 710.9 49.08 710.9 44.1403C710.9 47.4787 712.09 41.5118 714.058 41.6175C716.041 37.5992 718.802 42.7505 721.96 39.0948C725.118 35.0916 728.673 40.6507 731.448 37.4029C734.21 31.9646 736.192 34.6082 736.192 35.711C736.192 32.7653 740.143 31.451 744.094 31.4963C748.045 27.8557 751.997 32.2667 751.997 27.2817C751.997 28.0219 755.551 27.8104 759.105 29.8044C762.66 30.877 766.214 36.5267 766.214 32.3272C770.165 31.6021 774.513 34.7744 777.869 35.2729C781.225 35.2729 783.605 36.3756 783.605 35.6959C783.605 39.276 786.593 34.9708 790.572 35.6959C794.551 28.6261 799.536 30.9525 803.516 35.6959C807.495 37.1914 810.483 38.0675 810.483 35.6959C810.483 44.0043 813.641 33.4601 816.813 36.5418C819.971 33.6263 823.143 41.5118 823.143 37.3878C823.143 38.838 828.284 38.4905 833.424 39.0797C838.565 38.4452 843.705 47.1313 843.705 40.7716C843.705 40.1522 847.048 45.3185 851.494 40.7716C855.941 44.7143 861.506 37.4331 865.953 40.7716C870.4 48.0226 873.742 45.3639 873.742 40.7716C873.742 40.7867 876.206 37.0554 879.59 44.8956C882.989 51.2251 887.322 49.0045 891.061 53.5212C894.814 55.9986 897.972 50.2734 899.02 61.0139C899.02 66.3766 903.367 56.7389 907.715 61.0139C912.062 60.3492 916.41 54.6542 916.41 61.0139C916.41 58.5063 920.757 59.9263 925.105 56.7993C929.452 56.3914 933.8 51.21 933.8 52.5846C933.8 49.503 936.958 47.3579 940.13 49.216C943.288 48.0226 946.46 46.4666 946.46 45.8473C946.46 51.1798 947.253 41.0888 949.023 44.3668C950.808 41.965 953.569 43.9892 957.52 44.1554C961.471 48.9289 965.422 46.9651 968.382 45.6358C971.342 43.4756 973.324 51.8898 973.324 45.8473C973.324 42.9771 976.666 43.0828 981.113 44.533C985.56 43.113 991.125 41.3003 995.572 42.1009C1000.02 44.6992 1003.36 42.9318 1003.36 40.7867C1003.36 31.164 1006.7 39.6386 1011.15 41.2248C1015.6 35.7714 1021.16 34.1701 1025.61 42.0405C1030.05 44.8956 1033.4 35.4542 1033.4 42.4786C1033.4 40.1673 1037.74 46.1041 1042.09 44.1705C1046.44 49.5483 1050.79 40.4543 1050.79 45.8624C1050.79 36.8439 1055.93 42.7958 1061.07 49.2311C1064.93 50.364 1068.8 53.4457 1070.47 53.5816C1070.51 54.3068 1070.61 54.8657 1070.74 55.1225C1071.73 59.5788 1075.29 58.748 1085.57 62.7058C1090.71 61.3916 1096.23 70.5309 1101.64 66.8751C1106.7 70.0475 1111.65 69.7453 1116.07 69.5036V53.0983C1116.07 53.2493 1116.07 49.3368 1116.07 48.1283V38.2639C1116.07 33.2335 1113.65 39.1854 1110.01 38.4452L1109.94 38.5056Z" fill="url(#paint0_linear_18_85)"/>
</g>
<defs>
<linearGradient id="paint0_linear_18_85" x1="4.80806e-06" y1="45.4998" x2="1116" y2="45.4998" gradientUnits="userSpaceOnUse">
<stop stop-color="white"/>
<stop offset="0.34" stop-color="#F0F0F0"/>
<stop offset="1" stop-color="#C9C9C9"/>
</linearGradient>
<clipPath id="clip0_18_85">
<rect width="1116" height="91" fill="white"/>
</clipPath>
</defs>
</svg>
