<svg width="1116" height="40" viewBox="0 0 1116 40" fill="none" xmlns="http://www.w3.org/2000/svg">
<path d="M17.4615 11.8263C26.1923 14.6706 34.9231 16.2974 34.9231 12.1557C34.9231 14.3812 47.1549 17.964 47.1549 16.8064C47.1549 17.6846 56.7646 16.8762 66.3597 18.1337C75.9694 23.483 85.5644 13.004 85.5644 19.461C85.5644 17.1557 101.283 8.7824 101.283 16.8064C107.098 18.5129 115.844 21.1776 124.897 17.8942C133.95 18.7924 143.325 16.6766 150.445 20.5988C157.564 19.6606 162.413 16.467 162.413 22.1257C162.413 20.9281 165.035 23.4231 167.657 25.7784C170.279 35.7584 172.901 23.7924 172.901 29.4311C172.901 29.3413 179.01 17.4151 185.133 27.7644C191.242 25.0299 197.365 31.0778 197.365 26.0978C197.365 20.7584 204.353 26.6666 211.34 26.7664C218.328 24.8103 225.315 24.4411 225.315 27.4351C225.315 26.7664 230.984 25.2994 236.668 26.1078C242.337 27.8842 248.021 24.4311 248.021 24.7804C248.021 28.2734 251.185 18.8722 255.932 23.0938C260.678 23.3533 267.006 15.7285 273.349 24.7804C279.678 30.0898 286.006 29.0119 290.752 24.7804C295.498 19.3313 298.663 27.4551 298.663 24.7804C298.663 20.4091 303.467 17.8343 308.272 22.4551C309.078 21.6666 309.869 20.7984 310.645 19.9301C311.422 19.0618 312.184 18.2135 312.887 17.465C313.604 16.5369 314.264 16.0379 314.864 15.6587C315.465 15.2095 315.992 14.9401 316.446 15.0998C316.886 15.3393 317.252 15.5988 317.486 16.3872C317.735 17.1956 317.867 18.4032 317.867 20.1197C317.867 21.1277 325.734 17.7944 333.586 19.7904C341.452 25.1796 349.304 23.9521 349.304 19.461C349.304 17.9042 349.582 16.6866 350.051 15.8283C350.534 14.8103 351.208 14.481 352.029 14.3113C352.849 14.9101 353.801 14.2515 354.827 14.96C355.852 15.5389 356.936 16.487 358.035 17.8044C362.4 25.2295 366.765 16.7365 366.765 16.1377C366.765 20.0598 371.57 21.477 376.375 17.8044C381.18 22.5549 385.985 9.51095 385.985 19.471C385.985 19.2714 394.716 27.9241 394.716 24.1217C394.716 24.5309 399.521 25.0998 404.325 24.4511C409.13 25.7385 413.935 24.4211 413.935 24.7804C413.935 22.4251 423.105 22.4251 432.276 22.7844C441.446 21.7864 450.616 20.7884 450.616 20.7884C450.616 20.7884 455.86 21.1177 461.09 21.4571C466.334 19.9002 471.564 18.5329 471.564 22.1257C471.564 23.4331 479.416 24.501 487.282 19.1317C495.149 17.3054 503.001 15.3193 503.001 16.1377C503.001 18.6626 506.927 15.5089 510.852 20.459C514.778 16.0778 518.704 29.0519 518.704 24.7804C518.704 26.7465 529.178 25.5588 529.178 23.4531C529.178 19.8802 535.287 22.8343 541.41 20.7984C547.519 24.2914 553.642 21.2076 553.642 18.1437C553.642 22.505 564.116 21.6267 564.116 22.7944C564.116 24.3912 581.578 22.2255 581.578 22.7944C581.578 19.99 593.809 22.3453 593.809 22.7944C593.809 24.0219 595.553 28.1038 597.296 27.8044C599.039 33.0938 600.782 32.5848 600.782 28.1137C600.782 25.6586 602.438 25.7185 605.177 26.5469C607.931 27.1257 611.769 28.7425 616.178 28.2834C620.573 30.3592 625.524 26.7664 630.476 28.4431C635.427 25.1397 640.378 29.6507 644.773 28.6028C653.577 26.7964 660.169 29.6906 660.169 28.7724C660.169 31.507 672.401 22.6846 672.401 24.7804C672.401 23.8323 688.119 26.2674 688.119 24.7804C688.119 19.8503 700.351 28.8622 700.351 27.4351C700.351 26.3573 707.339 26.8662 714.326 24.1117C721.314 18.1237 728.301 22.994 728.301 20.7884C728.301 22.2854 745.763 26.2974 745.763 20.7884C745.763 16.9161 751.007 21.5768 756.237 23.1137C761.481 19.2914 766.711 20.5788 766.711 25.4391C766.711 22.2056 771.076 35.2994 775.442 27.4351C779.807 26.6167 784.172 24.6806 784.172 29.4311C784.172 29.6307 792.903 30.2894 801.634 27.1058C803.817 26.1876 805.999 25.5888 808.05 25.1996C810.101 24.8103 812.005 24.6307 813.646 24.5708C815.287 24.6008 816.649 24.8503 817.601 24.6307C818.553 25.1297 819.095 23.9321 819.095 24.7804C819.095 23.5229 819.535 25.0798 820.253 23.2435C820.985 23.5828 821.996 22.0958 823.168 23.2435C824.325 22.984 825.643 23.7525 826.947 24.2315C828.251 23.3533 829.569 25.1397 830.727 25.4291C831.884 26.3074 832.909 27.4151 833.642 28.004C834.374 28.5928 834.799 28.6527 834.799 27.4351C834.799 25.2195 842.651 32.3553 850.517 30.7584C858.369 32.3852 866.236 35.3493 866.236 34.0818C866.236 35.1597 878.468 27.3553 878.468 32.0858C878.468 30.6587 888.941 33.4331 892.443 28.0938C895.929 25.9082 899.43 27.485 899.43 22.7744C899.43 26.4371 906.418 25.1796 911.076 22.974C913.405 21.8762 915.148 20.4291 915.148 19.4511C915.148 19.6008 917.111 20.1097 920.056 18.6227C923 20.1896 926.926 20.0698 930.867 18.7824C934.793 20.7684 938.719 21.9261 941.678 22.1357C944.622 22.3453 946.585 21.3273 946.585 18.1137C946.585 12.0459 948.328 16.7864 950.072 19.9101C951.815 22.2954 953.558 25.0698 953.558 24.0918C953.558 24.1716 960.106 18.3932 966.654 24.4211C973.202 27.1956 979.75 27.1157 979.75 24.7505C979.75 20.6886 987.075 18.3433 988.291 19.1417C988.217 16.9561 988.833 11.7165 993.711 14.1117C997.197 13.0539 1002.44 13.6127 1006.81 13.1137C1008.99 12.8642 1010.95 12.6147 1012.37 12.4251C1013.79 12.0958 1014.66 12.3054 1014.66 12.1157C1014.66 12.2255 1014.91 12.8443 1015.3 13.6926C1016.11 15.3892 1017.57 17.5748 1019.02 15.4391C1021.21 16.5868 1023.39 22.8143 1023.39 18.7624C1023.39 15.7285 1023.39 19.1417 1023.83 22.4151C1024.27 26.487 1025.13 25.5189 1026.89 28.0638C1030.38 30.7884 1030.38 25.4491 1030.38 30.7185C1030.38 31.2575 1047.84 30.0099 1047.84 32.7145C1047.84 35.8483 1053.08 34.8403 1058.31 32.0459C1063.56 34.1018 1068.79 25.6087 1068.79 31.3772C1068.79 29.8103 1073.15 30.3493 1077.52 30.9181C1081.88 31.487 1086.25 32.495 1086.25 30.7086C1086.25 32.6946 1088.11 31.6367 1090.89 30.3493C1093.68 28.8523 1097.38 31.1577 1101.1 34.7006C1104.81 37.974 1108.53 39.4111 1111.31 39.8103C1114.1 40.2095 1115.96 39.5708 1115.96 38.6826C1115.96 37.4052 1115.96 36.976 1115.96 36.996V25.9181C1115.96 25.1197 1115.96 26.4171 1115.96 26.7165C1115.96 27.8343 1115.96 24.2215 1115.96 21.996C1115.96 20.2694 1115.96 22.0559 1115.96 23.9221C1115.96 28.0938 1114.97 26.0279 1113.5 23.5828C1112.02 21.4271 1110.04 18.982 1108.07 21.467C1106.1 15.4091 1104.13 22.2654 1102.65 19.1117C1101.18 18.7325 1100.19 18.1237 1100.19 19.0219C1100.19 22.5249 1097.19 21.9561 1093.18 17.7844C1092.18 21.7565 1091.11 14.0319 1090.01 16.2275C1088.91 14.8303 1087.79 17.8842 1086.66 15.7285C1085.53 13.1936 1084.4 17.1956 1083.3 16.5269C1082.2 16.4072 1081.14 14.7704 1080.14 15.489C1078.13 18.3533 1076.37 18.004 1075.13 15.6187C1073.87 14.4211 1073.12 14.8902 1073.12 14.2614C1072.52 15.8882 1071.29 13.7325 1069.62 12.485C1067.95 10.8183 1065.83 12.8044 1063.45 10.6387C1062.27 12.1557 1061.02 14.0818 1059.73 9.28141C1058.44 10.0798 1057.13 10.6387 1055.79 8.84228C1053.13 6.25745 1050.4 9.04188 1047.81 7.2355C1045.22 2.8842 1042.77 7.25546 1040.66 5.92811C1038.55 4.66065 1036.76 3.71254 1035.52 5.04987C1034.27 4.59079 1033.54 5.42911 1033.54 4.73051C1033.54 5.06983 1032.24 6.12771 1030.29 4.48101C1028.34 3.483 1025.73 4.05186 1023.13 3.9321C1020.52 3.70256 1017.93 4.41115 1015.96 3.3832C1014.01 2.20556 1012.71 3.1337 1012.71 3.1337C1012.71 4.10176 1011.14 3.55286 1008.8 3.25346C1006.46 2.50496 1003.34 4.1816 1000.21 3.52292C997.095 2.4351 993.974 5.71853 991.631 3.79238C989.287 2.06584 987.719 -0.668695 987.719 3.91214C987.719 3.17362 986.284 7.25546 984.145 4.0319C981.992 4.37123 979.135 4.41115 976.264 4.30136C973.407 7.80436 970.536 5.31933 968.383 4.57083C966.229 6.41713 964.808 6.82632 964.808 4.69059C964.808 5.46903 962.963 4.84029 960.487 5.30935C958.026 6.20755 954.935 7.49498 952.459 6.45705C949.998 9.42113 948.138 6.74648 948.138 7.07582C948.138 7.05586 946.512 10.2095 944.358 6.86624C942.205 6.39717 939.495 6.37721 937.342 6.48699C935.188 6.69657 933.562 8.0838 933.562 6.27741C933.562 8.32332 932.625 4.85027 931.028 6.40715C929.431 8.25346 927.161 8.37322 924.48 6.74648C921.814 8.99198 918.737 5.57881 915.529 7.21554C913.933 6.06783 912.292 8.94208 910.651 7.60476C909.011 10.7684 907.385 7.90416 905.773 7.72452C902.565 8.5329 899.489 8.0838 896.823 8.19358C894.157 8.36324 891.886 7.85426 890.275 8.5329C888.678 8.41314 887.74 8.44308 887.74 8.66264C887.74 8.70256 886.114 7.27542 883.961 8.87222C881.807 8.67262 879.097 7.81434 876.944 9.25147C874.791 8.80236 873.165 9.26145 873.165 9.46105C873.165 10.2994 872.3 8.66264 870.85 9.81035C869.4 10.0898 867.378 9.38121 865.064 10.6886C862.749 8.69258 860.142 14.8004 857.549 11.8363C854.941 8.8822 852.349 11.487 850.034 12.984C847.719 15.0099 845.698 11.6866 844.248 13.8622C842.797 16.8263 841.933 14.2215 841.933 14.2115C841.933 11.2674 840.307 12.5549 838.154 14.2115C836 11.7764 833.29 12.994 831.137 14.2115C828.983 11.008 827.357 16.2674 827.357 14.2115C827.357 12.3652 826.493 11.986 825.043 13.8622C823.593 14.7105 821.571 11.6167 819.257 12.984C816.942 13.8123 814.334 15.1397 811.742 11.8363C809.134 14.2215 806.541 13.0339 804.227 10.6886C801.912 12.4451 799.891 11.5968 798.44 9.81035C796.99 10.8283 796.126 9.49099 796.126 9.46105C796.126 9.54089 794.5 9.51095 792.346 9.46105C790.193 9.21154 787.483 9.82033 785.33 9.46105C783.176 9.68061 781.55 9.37123 781.55 9.46105C781.55 9.79039 780.774 9.41115 779.397 9.29139C778.034 9.0319 776.071 9.09178 773.742 8.84228C771.398 8.79238 768.659 8.04388 765.744 8.20356C764.279 8.20356 762.77 7.65466 761.232 7.7844C759.694 7.12572 758.126 6.67661 756.574 7.47502C755.006 7.984 753.453 6.69657 751.915 7.21554C750.377 7.0359 748.868 5.68859 747.403 6.74648C744.474 6.05785 741.749 7.07582 739.405 6.10775C737.061 5.97801 735.113 7.62472 733.751 5.65865C732.388 9.51095 731.597 8.8822 731.597 5.48899C731.597 5.99797 730.425 6.23749 728.667 5.48899C726.91 0.58879 724.566 3.02392 722.222 5.48899C719.878 1.12771 717.534 -1.22758 715.776 5.48899C714.019 5.51893 712.847 4.10176 712.847 5.48899C712.847 5.33929 711.543 7.04588 709.595 5.60875C707.646 6.70655 705.039 4.82033 702.431 5.87821C699.824 0.788391 697.231 4.77043 695.268 6.14767C693.32 5.09977 692.016 3.72252 692.016 6.26743C692.016 6.13769 691.093 4.81035 689.555 6.79638C688.017 4.07182 685.849 3.70256 683.388 8.11374C682.157 10.0499 680.839 5.53889 679.491 8.79238C678.143 7.9341 676.752 9.62073 675.36 9.84029C673.968 10.509 672.577 11.5569 671.229 10.6387C669.881 10.968 668.563 11.3273 667.332 11.5569C664.871 12.1257 662.703 12.6547 661.165 12.8742C659.627 13.2036 658.704 13.4032 658.704 13.4032C658.704 13.4032 657.078 13.8423 654.925 14.4311C652.771 15.0199 650.061 15.7485 647.908 16.3373C645.755 16.7165 644.128 17.0858 644.128 17.3652C644.128 17.8044 642.957 17.1756 641.199 16.996C639.441 16.5169 637.097 17.1357 634.753 16.1776C632.409 15.9081 630.065 15.0499 628.308 15.3593C626.55 15.5489 625.378 15.5389 625.378 14.99C625.378 15.5788 624.382 15.7884 622.785 14.491C621.188 12.4351 618.991 15.9581 616.588 13.3133C614.186 16.6766 611.593 11.1577 609.191 11.9062C606.788 11.7265 604.591 9.73051 602.994 10.7285C601.398 11.6367 600.401 14.1816 600.401 10.2295C600.401 9.81035 599.552 9.37123 598.102 10.1896C596.651 10.6387 594.586 9.25147 592.154 10.0798C589.722 13.2036 586.939 11.1477 584.024 9.92013C581.109 8.65266 578.076 8.44308 575.161 9.75047C572.246 9.43111 569.448 9.30136 567.031 9.59079C564.599 10.8782 562.534 10.7385 561.084 9.48101C559.633 11.0978 558.784 10.3992 558.784 9.44109C558.784 7.6846 558.007 11.497 556.733 9.28141C555.458 9.90017 553.701 9.56085 551.752 8.75246C549.804 8.31334 547.651 6.56683 545.6 7.77442C543.549 6.02791 541.601 6.23749 540.033 6.27741C538.788 6.85626 536.781 2.77442 534.379 5.27941C531.976 7.06584 529.178 1.55685 526.336 4.97003C523.494 6.23749 520.594 4.41115 517.986 5.07981C515.394 5.19957 513.094 5.22951 511.438 5.33929C509.783 5.46903 508.787 9.45107 508.787 5.48899C508.787 5.47901 508.274 3.24348 507.351 5.43909C506.428 5.59877 505.095 4.65067 503.44 5.28939C501.785 4.40117 499.822 2.7844 497.639 5.04987C495.456 3.79238 493.054 5.39917 490.52 4.71055C489.26 5.59877 487.971 2.1357 486.652 3.32332C485.334 1.68659 484.016 2.47502 482.683 4.27143C480.016 3.5828 477.321 5.75845 474.699 3.74248C473.38 6.34727 472.091 6.56683 470.832 5.40915C469.572 6.90616 468.341 2.61474 467.14 3.11374C467.14 1.97602 466.92 5.14967 466.539 5.68859C466.349 5.58879 466.1 4.88021 465.822 3.75246C465.543 4.43111 465.206 4.96005 464.84 3.51294C463.39 4.89019 461.324 3.64268 458.893 4.53091C457.677 4.49099 456.373 4.89019 455.011 4.84029C453.648 5.90815 452.213 7.8343 450.762 5.92811C450.03 6.71654 449.298 5.48899 448.565 6.33729C447.818 4.92013 447.086 4.79039 446.339 6.82632C444.844 4.51095 443.365 5.33929 441.9 7.45506C440.45 6.26743 439.014 9.41115 437.652 9.88021C436.289 10.3493 434.986 10.2495 433.77 8.84228C431.338 12.7245 429.272 7.52492 427.822 9.86025C426.372 8.91214 425.522 9.74049 425.522 10.2594C425.522 9.32133 423.677 10.0499 421.201 9.64069C418.74 10.1497 415.649 8.12372 413.173 8.49298C410.712 10.2994 408.852 11.4072 408.852 7.87422C408.852 9.36125 407.68 7.54488 405.82 7.79438C403.959 11.3872 401.381 8.1836 398.583 7.59478C395.785 8.10376 392.753 7.54488 389.955 7.35526C387.157 7.96404 384.593 7.90416 382.718 7.15566C380.858 7.76444 379.686 7.75446 379.686 7.07582C379.686 7.34528 378.06 6.8862 375.906 6.86624C373.753 7.485 371.043 5.79837 368.89 6.48699C366.736 2.6846 365.11 5.21953 365.11 6.27741C365.11 4.71055 364.114 5.95805 362.517 6.02791C361.712 6.86624 360.774 4.33131 359.719 5.65865C358.665 7.52492 357.522 8.70256 356.321 5.43909C355.12 1.11773 353.874 7.50496 352.629 4.69059C351.384 6.30735 350.124 4.33131 348.938 4.74049C347.736 8.6826 346.594 8.27342 345.539 4.49099C344.484 4.95007 343.547 4.70057 342.741 4.15166C341.144 5.26943 340.148 1.37721 340.148 3.90216C340.148 4.86025 339.68 2.485 338.918 4.22152C338.141 2.97402 337.072 3.59278 335.827 4.10176C334.596 6.71653 333.205 3.76244 331.813 4.29139C330.421 6.27741 329.03 6.31733 327.799 4.48101C325.338 5.32931 323.478 1.60675 323.478 4.69059C323.478 11.7964 321.852 4.64069 319.698 5.30935C317.545 8.2335 314.835 3.40316 312.682 6.45705C310.528 5.91813 308.902 10.1996 308.902 7.07582C308.902 5.64867 307.73 8.81234 305.972 7.44508C304.214 8.79238 301.871 6.32731 299.527 8.26344C297.183 8.80236 294.839 10.7884 293.081 9.0818C291.323 10.6886 290.152 9.04188 290.152 9.45107C290.152 11.1277 288.76 11.7764 286.914 9.86025C285.068 6.74648 282.754 8.34328 280.893 10.6187C279.048 13.2934 277.656 10.6587 277.656 11.0279C277.656 11.7066 276.22 8.82232 274.082 11.1477C273.012 12.3054 271.752 10.1197 270.419 12.1157C269.072 13.6826 267.651 13.8323 266.215 11.4271C265.497 9.49099 264.78 8.79238 264.076 8.55286C263.373 10.2694 262.685 7.34528 262.011 10.0199C261.337 9.11174 260.693 9.66065 260.077 12.1457C259.462 13.5329 258.876 13.0838 258.349 11.7165C257.279 10.5988 256.386 12.974 255.756 13.3433C255.126 13.7125 254.774 13.5628 254.774 11.8463C253.91 12.505 253.075 7.26544 252.299 8.00396C251.522 8.483 250.775 8.10376 250.072 11.3173C249.369 12.1557 248.71 12.8243 248.094 12.7944C247.479 12.7744 246.893 12.0658 246.351 10.1696C244.198 12.8044 242.645 7.5848 241.649 9.55087C240.653 8.22352 240.184 9.20156 240.184 9.46105C240.184 9.49099 238.338 9.02192 235.863 9.87023C234.632 13.2135 233.24 10.8882 231.849 10.9481C230.457 13.1038 229.065 8.87222 227.835 10.6287C225.374 7.94408 223.514 9.39119 223.514 11.0379C222.268 11.6866 220.349 14.7006 218.079 11.6467C215.808 13.5828 213.201 12.5848 210.549 11.7265C207.898 11.7465 205.217 11.4471 202.815 11.497C200.412 11.4571 198.303 11.2375 196.779 11.1976C195.27 10.988 194.347 10.9381 194.347 11.0479C194.347 10.8682 193.688 10.9181 192.487 10.8882C191.286 10.6786 189.557 10.6986 187.419 10.469C185.28 10.2095 182.76 10.2195 179.962 9.85027C177.164 9.87023 174.103 9.76045 170.895 9.09178C167.701 8.81234 164.361 8.66264 161.036 8.27342C157.71 7.89418 154.37 6.92612 151.177 7.45506C147.984 7.77442 144.907 7.40516 142.109 6.69657C139.311 7.52492 136.777 6.43709 134.638 6.07781C132.5 4.66065 130.771 6.53689 129.57 5.65865C128.369 5.27941 127.709 5.49897 127.709 5.49897C127.709 5.49897 124.062 5.41913 120.414 5.09977C116.767 4.90017 113.119 7.25546 113.119 4.70057C113.119 6.26743 109.472 3.65266 105.824 3.91214C104.007 3.2834 102.176 2.79438 100.814 2.61474C99.4516 2.7345 98.5434 2.99398 98.5434 3.12372C98.5434 3.21354 97.5033 3.95206 95.9359 4.51095C94.3685 5.79837 92.2883 5.38919 90.2082 3.51294C88.128 3.87222 86.0479 -2.52498 84.4804 2.20556C82.913 3.54288 81.8729 2.91414 81.8729 3.91214C81.8729 5.50895 80.4373 5.87821 78.2986 3.60276C76.1452 2.70456 73.2886 4.35127 70.4174 4.70057C67.5609 3.99198 64.6897 3.32332 62.5363 5.23949C60.3829 7.3353 58.962 9.23151 58.962 5.49897C58.962 6.29737 58.0391 6.53689 56.4277 2.8343C54.8163 0.209548 52.5164 1.50695 49.7478 4.82033C46.9791 5.28939 43.7564 4.07182 40.2992 4.66065C36.8421 3.12372 33.1505 7.5848 29.4737 3.32332C25.7821 1.61673 22.1052 2.92412 18.6481 2.52492C15.1909 -2.5649 11.9682 5.20955 9.19953 1.82632C6.44553 2.45506 4.14565 0.0299079 2.53427 1.45705C0.922883 0.978012 0 -1.45712 0 1.26743C0 0.56883 0 5.32931 0 6.37721V11.487L17.4615 11.8163V11.8263Z" fill="url(#paint0_linear_18_80)"/>
<defs>
<linearGradient id="paint0_linear_18_80" x1="0" y1="20" x2="1116" y2="20" gradientUnits="userSpaceOnUse">
<stop stop-color="white"/>
<stop offset="0.34" stop-color="#F0F0F0"/>
<stop offset="1" stop-color="#C9C9C9"/>
</linearGradient>
</defs>
</svg>
