<svg width="76" height="94" viewBox="0 0 76 94" fill="none" xmlns="http://www.w3.org/2000/svg">
<g clip-path="url(#clip0_19_114)">
<path d="M56.7378 34.8788V36.175C56.7378 45.9982 56.7588 55.8284 56.7378 65.6516C56.6958 79.1603 47.6363 90.4128 34.4804 93.3485C19.0805 96.7817 3.53385 86.2789 0.912453 70.6753C-1.63904 55.4851 7.95878 41.3178 22.9951 38.1789C24.7427 37.8145 26.5532 37.7235 28.3428 37.6254C29.7199 37.5483 30.4679 38.312 30.4749 39.6853C30.4958 44.5408 30.4958 49.3964 30.4749 54.2519C30.4749 55.7233 29.7898 56.3189 28.168 56.41C23.5823 56.6622 19.9683 60.0113 19.2972 64.6287C18.6681 68.9307 21.4013 73.2537 25.6585 74.7041C31.4675 76.6799 37.675 72.448 37.9686 66.3102C37.9965 65.7637 37.9895 65.2172 37.9895 64.6637C37.9895 44.0714 37.9895 23.4791 37.9895 2.88685C37.9895 0.490606 38.4649 0.0141602 40.8626 0.0141602C45.3574 0.0141602 49.8453 0.0141602 54.3401 0.0141602C56.1017 0.0141602 56.6819 0.658764 56.7588 2.41741C56.8566 4.59645 56.7588 6.83855 57.2411 8.94052C58.5203 14.6018 63.6653 18.6236 69.4603 18.7917C70.7885 18.8268 72.1167 18.7917 73.4448 18.8128C74.759 18.8408 75.486 19.5414 75.493 20.8587C75.514 25.7493 75.514 30.6468 75.493 35.5374C75.493 36.8967 74.7451 37.5483 73.333 37.5973C67.7756 37.7935 62.3371 37.254 57.1852 34.9629C57.0873 34.9208 56.9685 34.9208 56.7448 34.8858L56.7378 34.8788ZM41.7294 3.81872V5.36717C41.7294 25.2168 41.7294 45.0593 41.7224 64.9089C41.7224 65.8828 41.6735 66.8708 41.5267 67.8307C40.7088 73.1907 36.7522 77.4156 31.4535 78.6348C26.2806 79.8259 20.7512 77.6188 17.7314 73.1486C14.7325 68.7135 14.7185 62.905 17.7314 58.4559C19.8774 55.2819 22.9112 53.4532 26.6581 52.7595V41.451C25.9521 41.528 25.3299 41.5631 24.7148 41.6682C11.6986 43.8822 2.94666 55.5692 4.42862 68.7555C6.17622 84.2961 22.5547 94.2874 37.1087 88.6962C46.7974 84.9757 52.963 76.0634 52.9839 65.6656C53.0119 54.5462 52.9839 43.4268 52.9909 32.3144C52.9909 30.0513 54.2562 29.3366 56.2764 30.2965C58.1708 31.2004 60.1072 32.0552 62.0994 32.7068C65.1962 33.7227 68.4048 33.989 71.6553 33.7998V22.5543C66.3286 22.8415 61.694 21.3631 57.9331 17.5936C54.1444 13.7961 52.7113 9.10167 52.9839 3.83273H41.7294V3.81872Z" fill="white"/>
</g>
<defs>
<clipPath id="clip0_19_114">
<rect width="75" height="94" fill="white" transform="translate(0.5)"/>
</clipPath>
</defs>
</svg>
